<?xml version="1.0" encoding="UTF-8" standalone="no"?>
<svg width="100%" height="100%" viewBox="0 0 900 279" version="1.1" xmlns="http://www.w3.org/2000/svg" xmlns:xlink="http://www.w3.org/1999/xlink" xml:space="preserve" xmlns:serif="http://www.serif.com/" style="fill-rule:evenodd;clip-rule:evenodd;stroke-linejoin:round;stroke-miterlimit:2;">
    <g transform="matrix(1,0,0,1,-90.3679,-400.739)">
        <g transform="matrix(1,0,0,1,0.899659,-23.9949)">
            <g transform="matrix(0.383508,1.38778e-17,-0.02859,0.173583,72.3579,543.128)">
                <rect x="113.386" y="753.823" width="406.971" height="168.662" style="fill:rgb(91,108,255);"></rect>
            </g>
            <g transform="matrix(0.449565,0,0,0.449565,18.9928,294.247)">
                <g transform="matrix(684.366,0,0,684.366,135.153,794.777)">
                    <path d="M0.519,-0.532C0.52,-0.568 0.508,-0.595 0.485,-0.614C0.461,-0.633 0.429,-0.642 0.387,-0.642C0.342,-0.642 0.305,-0.632 0.276,-0.612C0.246,-0.592 0.229,-0.566 0.224,-0.535C0.22,-0.512 0.224,-0.493 0.235,-0.478C0.247,-0.464 0.262,-0.452 0.282,-0.444C0.301,-0.435 0.319,-0.429 0.337,-0.424L0.406,-0.406C0.428,-0.4 0.45,-0.392 0.473,-0.382C0.495,-0.372 0.516,-0.36 0.534,-0.344C0.552,-0.328 0.566,-0.309 0.575,-0.285C0.584,-0.262 0.586,-0.234 0.58,-0.201C0.573,-0.16 0.557,-0.123 0.53,-0.091C0.504,-0.059 0.469,-0.034 0.426,-0.015C0.383,0.003 0.333,0.012 0.276,0.012C0.195,0.012 0.133,-0.007 0.091,-0.045C0.049,-0.083 0.032,-0.135 0.039,-0.201L0.15,-0.201C0.146,-0.161 0.158,-0.132 0.186,-0.113C0.214,-0.094 0.249,-0.084 0.291,-0.084C0.338,-0.084 0.378,-0.095 0.412,-0.117C0.446,-0.138 0.466,-0.167 0.472,-0.202C0.475,-0.224 0.472,-0.241 0.463,-0.255C0.453,-0.269 0.438,-0.28 0.419,-0.289C0.399,-0.298 0.377,-0.306 0.352,-0.313L0.27,-0.336C0.214,-0.352 0.172,-0.376 0.143,-0.406C0.115,-0.437 0.105,-0.478 0.113,-0.528C0.12,-0.57 0.137,-0.607 0.165,-0.638C0.193,-0.67 0.228,-0.694 0.27,-0.711C0.311,-0.729 0.357,-0.737 0.405,-0.737C0.454,-0.737 0.496,-0.729 0.531,-0.711C0.565,-0.694 0.591,-0.67 0.608,-0.639C0.624,-0.608 0.63,-0.572 0.625,-0.532L0.519,-0.532Z" style="fill:rgb(248,250,252);fill-rule:nonzero;"></path>
                </g>
                <g transform="matrix(684.366,0,0,684.366,550.198,794.777)">
                    <path d="M0.26,0.011C0.206,0.011 0.162,-0.001 0.127,-0.024C0.092,-0.047 0.067,-0.08 0.053,-0.122C0.04,-0.164 0.037,-0.213 0.047,-0.269C0.056,-0.325 0.075,-0.374 0.103,-0.417C0.131,-0.46 0.165,-0.493 0.207,-0.517C0.249,-0.541 0.295,-0.553 0.346,-0.553C0.387,-0.553 0.425,-0.543 0.459,-0.525C0.492,-0.507 0.517,-0.477 0.534,-0.437C0.55,-0.397 0.553,-0.344 0.542,-0.278L0.536,-0.241L0.147,-0.241C0.138,-0.182 0.145,-0.139 0.168,-0.114C0.192,-0.089 0.227,-0.077 0.275,-0.077C0.306,-0.077 0.334,-0.083 0.357,-0.096C0.381,-0.109 0.4,-0.129 0.414,-0.154L0.511,-0.136C0.492,-0.092 0.46,-0.056 0.416,-0.029C0.371,-0.002 0.319,0.011 0.26,0.011ZM0.161,-0.32L0.444,-0.32C0.451,-0.362 0.444,-0.396 0.424,-0.424C0.404,-0.451 0.373,-0.465 0.332,-0.465C0.304,-0.465 0.278,-0.458 0.254,-0.444C0.23,-0.429 0.21,-0.411 0.194,-0.389C0.177,-0.367 0.166,-0.344 0.161,-0.32Z" style="fill:rgb(248,250,252);fill-rule:nonzero;"></path>
                </g>
                <g transform="matrix(684.366,0,0,684.366,929.185,794.777)">
                    <path d="M0.026,-0L0.117,-0.545L0.219,-0.545L0.205,-0.459L0.211,-0.459C0.225,-0.488 0.247,-0.511 0.274,-0.528C0.302,-0.545 0.332,-0.554 0.365,-0.554C0.394,-0.554 0.416,-0.547 0.432,-0.534L0.384,-0.446C0.372,-0.452 0.356,-0.456 0.336,-0.456C0.299,-0.456 0.267,-0.444 0.238,-0.421C0.21,-0.398 0.193,-0.369 0.187,-0.333L0.132,-0L0.026,-0Z" style="fill:rgb(248,250,252);fill-rule:nonzero;"></path>
                </g>
                <g transform="matrix(684.366,0,0,684.366,1186.12,794.777)">
                    <path d="M0.026,-0L0.117,-0.545L0.219,-0.545L0.205,-0.459L0.211,-0.459C0.225,-0.488 0.247,-0.511 0.274,-0.528C0.302,-0.545 0.332,-0.554 0.365,-0.554C0.394,-0.554 0.416,-0.547 0.432,-0.534L0.384,-0.446C0.372,-0.452 0.356,-0.456 0.336,-0.456C0.299,-0.456 0.267,-0.444 0.238,-0.421C0.21,-0.398 0.193,-0.369 0.187,-0.333L0.132,-0L0.026,-0Z" style="fill:rgb(248,250,252);fill-rule:nonzero;"></path>
                </g>
                <g transform="matrix(684.366,0,0,684.366,1427.32,794.777)">
                    <path d="M0.183,0.012C0.149,0.012 0.118,0.006 0.093,-0.007C0.067,-0.02 0.048,-0.039 0.036,-0.064C0.023,-0.088 0.02,-0.119 0.026,-0.154C0.033,-0.195 0.049,-0.227 0.073,-0.249C0.097,-0.271 0.126,-0.287 0.159,-0.297C0.193,-0.306 0.227,-0.313 0.262,-0.317C0.296,-0.321 0.322,-0.324 0.343,-0.327C0.364,-0.33 0.379,-0.334 0.39,-0.339C0.4,-0.345 0.407,-0.354 0.409,-0.366L0.409,-0.369C0.414,-0.4 0.409,-0.424 0.395,-0.441C0.382,-0.458 0.358,-0.467 0.324,-0.467C0.288,-0.467 0.258,-0.459 0.234,-0.443C0.21,-0.428 0.192,-0.41 0.181,-0.391L0.086,-0.413C0.112,-0.463 0.147,-0.499 0.192,-0.52C0.238,-0.542 0.285,-0.553 0.335,-0.553C0.356,-0.553 0.379,-0.55 0.402,-0.545C0.426,-0.54 0.447,-0.53 0.466,-0.517C0.486,-0.503 0.5,-0.484 0.51,-0.459C0.519,-0.434 0.52,-0.402 0.514,-0.362L0.454,-0L0.35,-0L0.363,-0.075L0.359,-0.075C0.345,-0.054 0.324,-0.035 0.295,-0.016C0.266,0.003 0.228,0.012 0.183,0.012ZM0.219,-0.073C0.249,-0.073 0.275,-0.079 0.298,-0.091C0.321,-0.102 0.339,-0.117 0.354,-0.136C0.368,-0.155 0.377,-0.175 0.38,-0.197L0.392,-0.267C0.386,-0.262 0.375,-0.258 0.357,-0.254C0.34,-0.25 0.322,-0.247 0.303,-0.244C0.283,-0.242 0.268,-0.24 0.256,-0.238C0.225,-0.234 0.197,-0.226 0.173,-0.214C0.149,-0.201 0.134,-0.181 0.13,-0.153C0.126,-0.126 0.132,-0.107 0.149,-0.093C0.166,-0.08 0.189,-0.073 0.219,-0.073Z" style="fill:rgb(248,250,252);fill-rule:nonzero;"></path>
                </g>
                <g transform="matrix(684.366,0,0,684.366,1781.3,794.777)">
                    <path d="M0.186,-0.324L0.132,-0L0.026,-0L0.147,-0.727L0.252,-0.727L0.207,-0.457L0.214,-0.457C0.231,-0.486 0.254,-0.51 0.284,-0.527C0.313,-0.544 0.349,-0.553 0.391,-0.553C0.447,-0.553 0.489,-0.535 0.518,-0.501C0.547,-0.466 0.556,-0.415 0.544,-0.347L0.486,-0L0.38,-0L0.435,-0.334C0.442,-0.374 0.437,-0.405 0.42,-0.427C0.403,-0.45 0.376,-0.461 0.34,-0.461C0.302,-0.461 0.269,-0.449 0.24,-0.425C0.211,-0.401 0.193,-0.367 0.186,-0.324Z" style="fill:rgb(248,250,252);fill-rule:nonzero;"></path>
                </g>
            </g>
        </g>
    </g>
</svg>
